<svg id="Layer_3" data-name="Layer 3" xmlns="http://www.w3.org/2000/svg" viewBox="0 0 807.55 79.67"><defs><style>.cls-1{fill:#82ba41;}</style></defs><title>logo</title><path class="cls-1" d="M578.36,465v76.83H563.65V502.94l-24.07,28.9-24-28.9v38.89H500.9V465h.94l37.74,44.35L577.42,465Z" transform="translate(-88.34 -463.63)"/><path class="cls-1" d="M684.88,522.16a1.73,1.73,0,0,1,.81,2.53,36.41,36.41,0,0,1-5.17,6.57,41,41,0,0,1-8.14,6.42,39.93,39.93,0,0,1-9.67,4.15,39.44,39.44,0,0,1-10.77,1.47,38.33,38.33,0,0,1-15.45-3.15,40.35,40.35,0,0,1-21.24-21.24,39.46,39.46,0,0,1,0-30.9,40.38,40.38,0,0,1,21.24-21.23,38.33,38.33,0,0,1,15.45-3.15,39.78,39.78,0,0,1,20.44,5.62,41.29,41.29,0,0,1,8.14,6.41,38.25,38.25,0,0,1,5.14,6.47,1.73,1.73,0,0,1-.8,2.54L674.22,489a1.74,1.74,0,0,1-2.05-.6,29.62,29.62,0,0,0-3.15-3.61,28.28,28.28,0,0,0-5-3.89,25.32,25.32,0,0,0-5.78-2.63,21.14,21.14,0,0,0-6.3-.95,22.71,22.71,0,0,0-9.83,2.16,25.75,25.75,0,0,0-7.94,5.73,27.49,27.49,0,0,0-5.36,8.35,25.92,25.92,0,0,0,0,19.92,27.74,27.74,0,0,0,5.36,8.3,25.75,25.75,0,0,0,7.94,5.73,22.71,22.71,0,0,0,9.83,2.16,21.14,21.14,0,0,0,6.3-.95,25.32,25.32,0,0,0,5.78-2.63,27.21,27.21,0,0,0,5-3.94,32.49,32.49,0,0,0,3.15-3.66,1.73,1.73,0,0,1,2.05-.61Z" transform="translate(-88.34 -463.63)"/><path class="cls-1" d="M786.47,466.39v73.93a1.51,1.51,0,0,1-1.5,1.51H773.26a1.51,1.51,0,0,1-1.5-1.51V512.75a1.52,1.52,0,0,0-1.51-1.51H735.32a1.52,1.52,0,0,0-1.51,1.51v27.57a1.51,1.51,0,0,1-1.5,1.51H720.6a1.51,1.51,0,0,1-1.5-1.51V466.39a1.5,1.5,0,0,1,1.5-1.5h11.71a1.5,1.5,0,0,1,1.5,1.5V496.7a1.51,1.51,0,0,0,1.51,1.51h34.93a1.51,1.51,0,0,0,1.51-1.51V466.39a1.5,1.5,0,0,1,1.5-1.5H785A1.5,1.5,0,0,1,786.47,466.39Z" transform="translate(-88.34 -463.63)"/><path class="cls-1" d="M857.21,465h-1.47l-38.58,75.39a1,1,0,0,0,.88,1.44h13.74a1,1,0,0,0,.89-.56l5.61-11.5,0,0,1.52-2.73,15.77-31.53a1,1,0,0,1,1.77,0L874,528.82l.52.92,5.72,11.54a1,1,0,0,0,.88.55H894.9a1,1,0,0,0,.88-1.44Z" transform="translate(-88.34 -463.63)"/><path d="M864.09,534.55a7.43,7.43,0,0,1-2.25,5.42,7.55,7.55,0,0,1-5.52,2.26,7.35,7.35,0,0,1-5.47-2.26,7.51,7.51,0,0,1-2.21-5.42,7.62,7.62,0,0,1,2.21-5.52,7.35,7.35,0,0,1,5.47-2.25,7.68,7.68,0,0,1,7.77,7.77Z" transform="translate(-88.34 -463.63)"/><path d="M165.8,465.05v76.83H151.09V503L127,531.9l-24-28.91v38.89H88.34V465.05h1L127,509.4l37.84-44.35Z" transform="translate(-88.34 -463.63)"/><path d="M329.21,517.33a1.28,1.28,0,0,1,.46-1.92,24.38,24.38,0,0,0,10.19-8.74,26.72,26.72,0,0,0,4.37-15.24,28.56,28.56,0,0,0-2-10.67,25.11,25.11,0,0,0-5.42-8.41,24.15,24.15,0,0,0-8.37-5.46,28.93,28.93,0,0,0-10.79-1.95H284a1.29,1.29,0,0,0-1.29,1.29v10.46A1.29,1.29,0,0,0,284,478h33.65a11.4,11.4,0,0,1,6.18,1.47,10.93,10.93,0,0,1,3.56,3.57,12.83,12.83,0,0,1,1.67,4.41,23,23,0,0,1,.42,4,13.55,13.55,0,0,1-1.1,5.68,13.15,13.15,0,0,1-2.77,4,10.83,10.83,0,0,1-3.83,2.42,12.1,12.1,0,0,1-4.13.79H284a1.28,1.28,0,0,0-1.29,1.28v35a1.29,1.29,0,0,0,1.29,1.29h12.14a1.29,1.29,0,0,0,1.29-1.29V518.68a1.28,1.28,0,0,1,1.28-1.29h12.61a1.29,1.29,0,0,1,1,.55q4.22,6,8.42,11.85t8.62,11.58a1.28,1.28,0,0,0,1,.51h14.38a1.29,1.29,0,0,0,1-2Q337.64,528.5,329.21,517.33Z" transform="translate(-88.34 -463.63)"/><path d="M439.13,541.83l-50.56-45.72v45.72H373.86V465h1.58L426,511.45V465h14.72v76.83Z" transform="translate(-88.34 -463.63)"/><path d="M261.31,487.17a33,33,0,0,0-8.56-12.45q-10.59-9.68-27.07-9.67H196.34a1,1,0,0,0-1,1V477.3a1,1,0,0,0,1,1h29.38a37.29,37.29,0,0,1,8.2.95,19.1,19.1,0,0,1,7.68,3.67,19.81,19.81,0,0,1,5.67,7.73q2.21,5,2.21,13t-2.21,12.93a20.68,20.68,0,0,1-5.62,7.73A18.36,18.36,0,0,1,234,528a37.83,37.83,0,0,1-8.31.94H196.34a1,1,0,0,0-1,1V541a1,1,0,0,0,1,1h29.34a45.22,45.22,0,0,0,15.06-2.42,34.33,34.33,0,0,0,12-7.15A33,33,0,0,0,261.31,520a48.13,48.13,0,0,0,0-32.8Z" transform="translate(-88.34 -463.63)"/><path class="cls-1" d="M210.8,503.36a7.72,7.72,0,0,1-7.78,7.78,7.35,7.35,0,0,1-5.46-2.26,7.58,7.58,0,0,1-2.21-5.52,7.43,7.43,0,0,1,2.21-5.41,7.31,7.31,0,0,1,5.46-2.26,7.51,7.51,0,0,1,5.52,2.26A7.36,7.36,0,0,1,210.8,503.36Z" transform="translate(-88.34 -463.63)"/></svg>